<?xml version="1.0" encoding="utf-8"?>
<!-- Generator: Adobe Illustrator 15.0.0, SVG Export Plug-In  -->
<!DOCTYPE svg PUBLIC "-//W3C//DTD SVG 1.1//EN" "http://www.w3.org/Graphics/SVG/1.1/DTD/svg11.dtd" [
	<!ENTITY ns_flows "http://ns.adobe.com/Flows/1.0/">
]>
<svg version="1.1"
	 xmlns="http://www.w3.org/2000/svg" xmlns:xlink="http://www.w3.org/1999/xlink" xmlns:a="http://ns.adobe.com/AdobeSVGViewerExtensions/3.0/"
	 x="0px" y="0px" width="21px" height="21px" viewBox="0 0 21 21" overflow="visible" enable-background="new 0 0 21 21"
	 xml:space="preserve">
<defs>
</defs>
<path d="M17,9V4l-1.682,1.682C14.098,4.057,12.23,3,10,3c-3.866,0-7,3.133-7,7c0,3.865,3.134,7,7,7c3.525,0,6.514-2.609,7-6h-2
	c-0.467,2.393-2.471,4.199-5,4.199c-2.871,0-5.2-2.328-5.2-5.199c0-2.873,2.329-5.201,5.2-5.201c1.647,0,3.228,0.77,4.234,1.965
	L12,9H17z"/>
<rect opacity="0" fill="#4387FD" width="21" height="21"/>
</svg>
